<svg width="327" height="512" viewBox="0 0 327 512" fill="none" xmlns="http://www.w3.org/2000/svg">
<path d="M305.487 0H327V94.7582V163.534H266.763V180.346L251.704 174.233H243.099L327 512H0L83.9013 145.194L96.8092 90.1731V76.4179V62.6627L103.263 58.0776H116.171V51.9642H103.263L90.3552 38.209V27.5104L83.9013 24.4537V18.3403L92.5066 15.2836L96.8092 4.58507H103.263L107.566 1.52836H120.474L139.836 38.209L137.684 39.7373V47.3791C137.684 47.3791 124.776 50.4358 124.776 56.5493C124.776 62.6627 137.684 61.1343 137.684 61.1343V62.6627H271.066V108.513H318.395V94.7582H305.487V0Z" fill="black"/>
</svg>
