<svg width="18" height="27" viewBox="0 0 18 27" fill="none" xmlns="http://www.w3.org/2000/svg">
<path d="M16.8158 0H18V4.99701V8.62388H14.6842V9.51045L13.8553 9.18806H13.3816L18 27H0L4.61842 7.65672L5.32895 4.75522V4.02985V3.30448L5.68421 3.06269H6.39474V2.7403H5.68421L4.97368 2.01493V1.45075L4.61842 1.28955V0.967164L5.09211 0.80597L5.32895 0.241791H5.68421L5.92105 0.080597H6.63158L7.69737 2.01493L7.57895 2.09552V2.49851C7.57895 2.49851 6.86842 2.6597 6.86842 2.98209C6.86842 3.30448 7.57895 3.22388 7.57895 3.22388V3.30448H14.9211V5.72239H17.5263V4.99701H16.8158V0Z" fill="black"/>
</svg>
