<svg width="11" height="18" viewBox="0 0 11 18" fill="none" xmlns="http://www.w3.org/2000/svg">
<path d="M10.2763 -5.76973e-05H11V3.33129V5.7492H8.97369V6.34024L8.46711 6.12532H8.17763L11 17.9999H1.90735e-06L2.82237 5.10442L3.25658 3.17009V2.68651V2.20293L3.47369 2.04173H3.9079V1.82681H3.47369L3.03948 1.34323V0.967106L2.82237 0.859644V0.644718L3.11185 0.537256L3.25658 0.161136H3.47369L3.61842 0.0536736H4.05263L4.70395 1.34323L4.63158 1.39696V1.66561C4.63158 1.66561 4.19737 1.77308 4.19737 1.988C4.19737 2.20293 4.63158 2.1492 4.63158 2.1492V2.20293H9.11842V3.81487H10.7105V3.33129H10.2763V-5.76973e-05Z" fill="white"/>
</svg>
